<!--?xml version="1.0" encoding="utf-8"?-->
<!-- Generator: Adobe Illustrator 18.1.1, SVG Export Plug-In . SVG Version: 6.00 Build 0)  -->

<svg version="1.1" id="_x31_0" xmlns="http://www.w3.org/2000/svg" xmlns:xlink="http://www.w3.org/1999/xlink" x="0px" y="0px" viewBox="0 0 512 512" style="width: 256px; height: 256px; opacity: 1;" xml:space="preserve">
<style type="text/css">
	.st0{fill:#374149;}
</style>
<g>
	<path class="st0" d="M256,0C114.614,0,0,114.614,0,256c0,141.383,114.614,256,256,256s256-114.617,256-256
		C512,114.614,397.386,0,256,0z M256,448c-105.871,0-192-86.133-192-192c0-105.871,86.129-192,192-192s192,86.129,192,192
		C448,361.867,361.871,448,256,448z" style="fill: rgb(99, 102, 241);"></path>
	<path class="st0" d="M277.301,341.863v-120.82h-10.293l-64.805,26.281l3.375,8.516c6.148-2.367,11.422-3.551,15.793-3.551
		c7.816,0,12.578,3.551,14.297,10.657c1.711,7.102,2.57,8.656,2.57,33.511v45.406c0,16.219-2.153,26.926-6.473,32.145
		c-4.324,5.203-13.054,7.805-26.187,7.805v8.523h104.218v-8.523c-13.019,0-21.695-2.63-26.012-7.898
		C279.465,368.652,277.301,357.961,277.301,341.863z" style="fill: rgb(99, 102, 241);"></path>
	<path class="st0" d="M256,186.641c20.77,0,32.414-18.234,32.414-30.898c0-16.715-14.684-30.894-32.414-33.934
		c-9.117-1.52-32.414,8.609-32.414,32.418C223.586,171.95,238.274,186.641,256,186.641z" style="fill: rgb(99, 102, 241);"></path>
</g>
</svg>
